<?xml version="1.0" encoding="UTF-8" standalone="no"?>
<!-- Created with Inkscape (http://www.inkscape.org/) -->

<svg
   width="50mm"
   height="50mm"
   viewBox="0 0 50 50"
   version="1.1"
   id="svg5"
   xmlns="http://www.w3.org/2000/svg"
   xmlns:svg="http://www.w3.org/2000/svg">
  <defs
     id="defs2" />
  <g
     id="layer1">
    <circle
       style="fill:#ffdd55;fill-opacity:1;fill-rule:evenodd;stroke:#000000;stroke-width:0.263602;stroke-miterlimit:4;stroke-dasharray:none;stroke-opacity:1"
       id="path31"
       cx="25"
       cy="25"
       r="24.868198" />
    <ellipse
       style="fill:#ffdd55;stroke-width:0.263188"
       id="path143"
       ry="2.8407137"
       rx="2.3080797"
       cy="14.524868"
       cx="11.329062" />
    <path
       style="fill:#000000"
       id="path239"
       d="m 17.080825,16.217395 a 3.9789116,3.9789116 0 0 1 -4.080644,3.838686 3.9789116,3.9789116 0 0 1 -3.8741499,-4.046989 3.9789116,3.9789116 0 0 1 4.0130279,-3.909319 3.9789116,3.9789116 0 0 1 3.944189,3.97876 h -3.978911 z" />
    <path
       style="fill:#000000"
       id="path241"
       d="m 35.545637,16.039852 a 3.9789116,3.9789116 0 0 1 -4.080644,3.838686 3.9789116,3.9789116 0 0 1 -3.87415,-4.04699 3.9789116,3.9789116 0 0 1 4.013028,-3.909319 3.9789116,3.9789116 0 0 1 3.94419,3.978761 h -3.978912 z" />
    <path
       style="fill:#d40000;fill-rule:evenodd;stroke:#000000"
       id="path392"
       d="m 117.37886,279.28073 c 0.67646,0.67646 -0.57811,1.24559 -1.12432,1.12432 -1.48018,-0.32865 -1.71813,-2.22458 -1.12432,-3.37296 1.0622,-2.05417 3.82051,-2.29481 5.6216,-1.12431 2.64317,1.71775 2.88859,5.43807 1.12431,7.87023 -2.3515,3.24168 -7.06333,3.48964 -10.11886,1.12431 -3.84508,-2.97652 -4.09447,-8.69225 -1.12432,-12.3675 3.59726,-4.45122 10.32324,-4.70148 14.61614,-1.12432 5.05904,4.21556 5.30985,11.95551 1.12432,16.86478 -4.83237,5.66795 -13.58864,5.91914 -19.11342,1.12432 -6.27761,-5.44819 -6.52906,-15.22237 -1.12431,-21.36206 6.06331,-6.8878 16.85653,-7.13945 23.61069,-1.12431 7.49839,6.67795 7.75019,18.49104 1.12431,25.85933"
       transform="matrix(0.26318843,0,0,0.26318844,-24.712488,-42.644492)" />
    <path
       style="fill:#d40000;fill-rule:evenodd;stroke:#000000"
       id="path394"
       d="m 222.61508,268.48727 c 0.47352,0.81175 -0.8606,1.03879 -1.34918,0.78703 -1.32402,-0.68227 -1.07608,-2.54289 -0.22486,-3.48539 1.52263,-1.68591 4.20318,-1.22495 5.62159,0.3373 2.08157,2.29266 1.38464,5.88832 -0.89946,7.7578 -3.04435,2.49172 -7.58258,1.54932 -9.894,-1.46163 -2.90869,-3.78897 -1.71668,-9.28125 2.02378,-12.0302 4.5302,-3.32935 10.98244,-1.88559 14.16641,2.58594 3.7522,5.26954 2.05548,12.68519 -3.1481,16.30262 -6.00774,4.17646 -14.38899,2.22601 -18.43883,-3.71027 -4.60168,-6.74518 -2.39701,-16.09351 4.27243,-20.57503 7.4821,-5.02758 17.79858,-2.56833 22.71123,4.83459 5.45399,8.21865 2.73992,19.50404 -5.39674,24.84744"
       transform="matrix(0.26318843,0,0,0.26318844,-19.38615,-40.513956)" />
    <path
       style="fill:none;stroke:#000000;stroke-width:0.855466;stroke-linecap:butt;stroke-linejoin:miter;stroke-miterlimit:4;stroke-dasharray:none;stroke-opacity:1"
       d="M 14.686412,37.02156 C 24.761534,60.77481 31.478283,35.656434 31.478283,35.656434"
       id="path1784" />
  </g>
</svg>
