<?xml version="1.0" encoding="UTF-8" standalone="no"?>
<!-- Created with Inkscape (http://www.inkscape.org/) -->

<svg
   width="50.264999mm"
   height="50.264999mm"
   viewBox="0 0 50.264999 50.264999"
   version="1.1"
   id="svg5"
   inkscape:version="1.1.1 (3bf5ae0d25, 2021-09-20)"
   sodipodi:docname="smiley.svg"
   xmlns:inkscape="http://www.inkscape.org/namespaces/inkscape"
   xmlns:sodipodi="http://sodipodi.sourceforge.net/DTD/sodipodi-0.dtd"
   xmlns="http://www.w3.org/2000/svg"
   xmlns:svg="http://www.w3.org/2000/svg">
  <sodipodi:namedview
     id="namedview7"
     pagecolor="#ffffff"
     bordercolor="#666666"
     borderopacity="1.0"
     inkscape:pageshadow="2"
     inkscape:pageopacity="0.0"
     inkscape:pagecheckerboard="0"
     inkscape:document-units="mm"
     showgrid="false"
     inkscape:zoom="0.74118967"
     inkscape:cx="37.777105"
     inkscape:cy="346.06526"
     inkscape:window-width="1315"
     inkscape:window-height="1041"
     inkscape:window-x="603"
     inkscape:window-y="170"
     inkscape:window-maximized="0"
     inkscape:current-layer="layer1"
     fit-margin-top="0"
     fit-margin-left="0"
     fit-margin-right="0"
     fit-margin-bottom="0" />
  <defs
     id="defs2" />
  <g
     inkscape:label="图层 1"
     inkscape:groupmode="layer"
     id="layer1">
    <circle
       style="fill:#ffdd55;fill-opacity:1;fill-rule:evenodd;stroke:#000000;stroke-width:0.265;stroke-miterlimit:4;stroke-dasharray:none;stroke-opacity:1"
       id="path31"
       cx="25.1325"
       cy="25.1325"
       r="25" />
    <ellipse
       style="fill:#ffdd55;stroke-width:0.264583"
       id="path143"
       ry="2.8557694"
       rx="2.3203125"
       cy="14.601849"
       cx="11.389107" />
    <path
       style="fill:#000000"
       id="path239"
       sodipodi:type="arc"
       sodipodi:cx="13.17379"
       sodipodi:cy="16.16375"
       sodipodi:rx="4"
       sodipodi:ry="4"
       sodipodi:start="0.034906585"
       sodipodi:end="6.2831853"
       sodipodi:arc-type="slice"
       d="M 17.171353,16.303348 A 4,4 0 0 1 13.069082,20.162379 4,4 0 0 1 9.1743992,16.09394 4,4 0 0 1 13.208696,12.163902 4,4 0 0 1 17.17379,16.16375 h -4 z" />
    <path
       style="fill:#000000"
       id="path241"
       sodipodi:type="arc"
       sodipodi:cx="31.736465"
       sodipodi:cy="15.985264"
       sodipodi:rx="4"
       sodipodi:ry="4"
       sodipodi:start="0.034906585"
       sodipodi:end="0"
       sodipodi:arc-type="slice"
       d="m 35.734029,16.124862 a 4,4 0 0 1 -4.102271,3.859031 4,4 0 0 1 -3.894683,-4.068439 4,4 0 0 1 4.034297,-3.930038 4,4 0 0 1 3.965093,3.999848 h -4 z" />
    <path
       sodipodi:type="spiral"
       style="fill:#d40000;fill-rule:evenodd;stroke:#000000"
       id="path392"
       sodipodi:cx="117.37886"
       sodipodi:cy="279.28073"
       sodipodi:expansion="1"
       sodipodi:revolution="3"
       sodipodi:radius="19.080318"
       sodipodi:argument="-18.064157"
       sodipodi:t0="0"
       d="m 117.37886,279.28073 c 0.67646,0.67646 -0.57811,1.24559 -1.12432,1.12432 -1.48018,-0.32865 -1.71813,-2.22458 -1.12432,-3.37296 1.0622,-2.05417 3.82051,-2.29481 5.6216,-1.12431 2.64317,1.71775 2.88859,5.43807 1.12431,7.87023 -2.3515,3.24168 -7.06333,3.48964 -10.11886,1.12431 -3.84508,-2.97652 -4.09447,-8.69225 -1.12432,-12.3675 3.59726,-4.45122 10.32324,-4.70148 14.61614,-1.12432 5.05904,4.21556 5.30985,11.95551 1.12432,16.86478 -4.83237,5.66795 -13.58864,5.91914 -19.11342,1.12432 -6.27761,-5.44819 -6.52906,-15.22237 -1.12431,-21.36206 6.06331,-6.8878 16.85653,-7.13945 23.61069,-1.12431 7.49839,6.67795 7.75019,18.49104 1.12431,25.85933"
       transform="matrix(0.26458333,0,0,0.26458333,-24.843464,-42.870506)" />
    <path
       sodipodi:type="spiral"
       style="fill:#d40000;fill-rule:evenodd;stroke:#000000"
       id="path394"
       sodipodi:cx="222.61508"
       sodipodi:cy="268.48727"
       sodipodi:expansion="1"
       sodipodi:revolution="3"
       sodipodi:radius="18.743441"
       sodipodi:argument="-17.806833"
       sodipodi:t0="0"
       d="m 222.61508,268.48727 c 0.47352,0.81175 -0.8606,1.03879 -1.34918,0.78703 -1.32402,-0.68227 -1.07608,-2.54289 -0.22486,-3.48539 1.52263,-1.68591 4.20318,-1.22495 5.62159,0.3373 2.08157,2.29266 1.38464,5.88832 -0.89946,7.7578 -3.04435,2.49172 -7.58258,1.54932 -9.894,-1.46163 -2.90869,-3.78897 -1.71668,-9.28125 2.02378,-12.0302 4.5302,-3.32935 10.98244,-1.88559 14.16641,2.58594 3.7522,5.26954 2.05548,12.68519 -3.1481,16.30262 -6.00774,4.17646 -14.38899,2.22601 -18.43883,-3.71027 -4.60168,-6.74518 -2.39701,-16.09351 4.27243,-20.57503 7.4821,-5.02758 17.79858,-2.56833 22.71123,4.83459 5.45399,8.21865 2.73992,19.50404 -5.39674,24.84744"
       transform="matrix(0.26458333,0,0,0.26458333,-19.488896,-40.728679)" />
    <path
       style="fill:none;stroke:#000000;stroke-width:0.86;stroke-linecap:butt;stroke-linejoin:miter;stroke-miterlimit:4;stroke-dasharray:none;stroke-opacity:1"
       d="M 14.76425,37.217773 C 24.89277,61.096914 31.645118,35.845412 31.645118,35.845412"
       id="path1784" />
  </g>
</svg>
