<?xml version="1.0" encoding="UTF-8" standalone="no"?>
<!-- Generator: Adobe Illustrator 16.0.0, SVG Export Plug-In . SVG Version: 6.00 Build 0)  -->

<svg
   version="1.1"
   id="Capa_1"
   x="0px"
   y="0px"
   width="50"
   height="50"
   viewBox="0 0 49.999998 49.999998"
   xml:space="preserve"
   xmlns="http://www.w3.org/2000/svg"
   xmlns:svg="http://www.w3.org/2000/svg"><defs
   id="defs39"><rect
     x="95.062668"
     y="-33.772263"
     width="175.11543"
     height="110.69797"
     id="rect10743" /></defs>
<g
   id="g4"
   transform="matrix(0.15297958,0,0,0.09609065,-14.800774,0)">
	<path
   d="M 411.487,0 H 108.855 C 102.174,0 96.75,5.423 96.75,12.105 v 411.578 c 0,6.68 5.423,12.105 12.105,12.105 6.683,0 12.105,-5.426 12.105,-12.105 V 24.211 h 278.421 v 8.697 l -127.105,92.279 v 395.155 l 127.791,-92.781 c 1.631,4.764 6.1,8.222 11.42,8.222 6.679,0 12.104,-5.42 12.104,-12.105 V 12.1 C 423.592,5.417 418.166,0 411.487,0 Z m -91.191,331.973 c -5.704,0 -10.462,-7.046 -11.691,-16.485 h -13.631 v -10.592 h 13.825 c 1.448,-8.86 6.012,-15.38 11.497,-15.38 6.632,0 12.005,9.498 12.005,21.231 0.006,11.721 -5.373,21.226 -12.005,21.226 z"
   id="path2" />
</g>
<g
   id="g6"
   transform="translate(-96.749999)">
</g>
<g
   id="g8"
   transform="translate(-96.749999)">
</g>
<g
   id="g10"
   transform="translate(-96.749999)">
</g>
<g
   id="g12"
   transform="translate(-96.749999)">
</g>
<g
   id="g14"
   transform="translate(-96.749999)">
</g>
<g
   id="g16"
   transform="translate(-96.749999)">
</g>
<g
   id="g18"
   transform="translate(-96.749999)">
</g>
<g
   id="g20"
   transform="translate(-96.749999)">
</g>
<g
   id="g22"
   transform="translate(-96.749999)">
</g>
<g
   id="g24"
   transform="translate(-96.749999)">
</g>
<g
   id="g26"
   transform="translate(-96.749999)">
</g>
<g
   id="g28"
   transform="translate(-96.749999)">
</g>
<g
   id="g30"
   transform="translate(-96.749999)">
</g>
<g
   id="g32"
   transform="translate(-96.749999)">
</g>
<g
   id="g34"
   transform="translate(-96.749999)">
</g>
<text
   xml:space="preserve"
   style="font-style:normal;font-variant:normal;font-weight:normal;font-stretch:normal;font-size:13.3333px;line-height:1.25;font-family:sans-serif;-inkscape-font-specification:'sans-serif, Normal';font-variant-ligatures:normal;font-variant-caps:normal;font-variant-numeric:normal;font-variant-east-asian:normal;fill:#000000;fill-opacity:1;stroke:none"
   x="4.5668035"
   y="13.133657"
   id="text6160"><tspan
     id="tspan6158"
     x="4.5668035"
     y="13.133657">exit</tspan></text><text
   xml:space="preserve"
   id="text10741"
   style="font-style:normal;font-weight:normal;font-size:40px;line-height:1.25;font-family:sans-serif;white-space:pre;shape-inside:url(#rect10743);fill:#000000;fill-opacity:1;stroke:none"
   transform="translate(-96.749999)" /></svg>
