<?xml version="1.0" encoding="UTF-8" standalone="no"?>
<!-- Generator: Adobe Illustrator 19.0.0, SVG Export Plug-In . SVG Version: 6.00 Build 0)  -->

<svg
   version="1.1"
   id="Layer_1"
   x="0px"
   y="0px"
   viewBox="0 0 50 50.000004"
   xml:space="preserve"
   sodipodi:docname="hab.svg"
   inkscape:version="1.1.1 (c3084ef, 2021-09-22)"
   width="50"
   height="50.000004"
   xmlns:inkscape="http://www.inkscape.org/namespaces/inkscape"
   xmlns:sodipodi="http://sodipodi.sourceforge.net/DTD/sodipodi-0.dtd"
   xmlns="http://www.w3.org/2000/svg"
   xmlns:svg="http://www.w3.org/2000/svg"><defs
   id="defs969" /><sodipodi:namedview
   id="namedview967"
   pagecolor="#ffffff"
   bordercolor="#666666"
   borderopacity="1.0"
   inkscape:pageshadow="2"
   inkscape:pageopacity="0.0"
   inkscape:pagecheckerboard="0"
   showgrid="false"
   inkscape:zoom="1.2246094"
   inkscape:cx="-6.1244019"
   inkscape:cy="6.1244019"
   inkscape:window-width="1296"
   inkscape:window-height="855"
   inkscape:window-x="0"
   inkscape:window-y="124"
   inkscape:window-maximized="0"
   inkscape:current-layer="Layer_1"
   fit-margin-top="0"
   fit-margin-left="0"
   fit-margin-right="0"
   fit-margin-bottom="0" />
<path
   style="fill:#f7222b;stroke-width:0.0999307"
   d="m 47.773805,32.022855 c 0.732811,0.6067 1.203027,1.545944 1.203027,2.600127 v 0 c 0,1.829608 -1.416504,3.312765 -3.163669,3.312765 H 39.318145 14.491009 4.1869128 c -1.7472648,0 -3.1636703,-1.48326 -3.1636703,-3.312765 v 0 c 0,-1.088951 0.5017575,-2.055191 1.2764642,-2.659027 z"
   id="path894" />
<path
   style="fill:#ed732f;stroke-width:0.0999307"
   d="m 46.528104,22.436021 c 1.352439,0 2.448728,1.147954 2.448728,2.564131 v 0 c 0,1.416076 -1.096289,2.564132 -2.448728,2.564132 H 3.471874 c -1.3524407,0 -2.4487292,-1.147954 -2.4487292,-2.564132 v 0 c 0,-1.416177 1.0962885,-2.564131 2.4487292,-2.564131 h 5.4075169 z"
   id="path896" />
<g
   id="g902"
   transform="matrix(0.0976562,0,0,0.10225848,7.5377372e-7,-1.178222)">
	<path
   style="fill:#ff9d3b"
   d="m 491.075,378.762 v 26.642 c 0,46.738 -37.889,84.627 -84.627,84.627 H 105.552 c -46.738,0 -84.627,-37.889 -84.627,-84.627 v -26.642 z"
   id="path898" />
	<path
   style="fill:#ff9d3b"
   d="M 335.925,230.927 H 52.269 c -23.08,0 -41.791,-18.711 -41.791,-41.791 v 0 C 10.478,96.813 85.32,21.972 177.642,21.972 h 156.716 c 92.323,0 167.164,74.842 167.164,167.164 v 0 c 0,23.08 -18.711,41.791 -41.791,41.791 h -51.194 z"
   id="path900" />
</g>
<path
   style="fill:#21cc5a;stroke-width:0.0999307"
   d="m 1.4856446,27.09185 c -1.29902284,2.390394 0.506445,4.483829 0.9402339,4.797354 1.2122063,0.875946 2.8165024,0.871856 4.0268536,-0.007 1.2198236,-0.879422 2.8315415,-0.879422 4.0512679,1.03e-4 l 6.99e-4,4.94e-4 c 1.219823,0.879525 2.831444,0.879627 4.051267,1.02e-4 v 0 c 1.219824,-0.879423 2.831542,-0.879423 4.051268,1.02e-4 1.220019,0.87973 2.832127,0.87881 4.051365,-0.0019 l 5.99e-4,-4.09e-4 c 0.700097,-0.504748 1.529101,-0.718059 2.339159,-0.643411 v 2.05e-4 c 4.99e-4,-1.02e-4 0.0012,-1.02e-4 0.0017,-1.02e-4 4.99e-4,0 0.0012,1.02e-4 0.0017,1.02e-4 v -2.05e-4 c 0.809961,-0.07465 1.639062,0.138663 2.339159,0.643411 l 5.99e-4,4.09e-4 c 1.219238,0.880854 2.831347,0.881673 4.051366,0.0019 1.219823,-0.879525 2.831444,-0.879627 4.051269,-1.02e-4 v 0 c 1.219822,0.879525 2.831541,0.879423 4.051267,-1.02e-4 l 6.65e-4,-4.94e-4 c 1.219826,-0.879525 2.831445,-0.879628 4.051271,-1.03e-4 1.210351,0.87881 2.814547,0.8829 4.026851,0.007 0.433691,-0.31332 2.239258,-2.406858 0.940236,-4.797354 z"
   id="path904" />
<polygon
   style="fill:#ffe48d"
   points="333.565,429.434 472.19,329.772 434.134,324.678 185.017,320.609 "
   id="polygon906"
   transform="matrix(0.0976562,0,0,0.10225848,7.5377372e-7,-1.178222)" />
<path
   d="m 49.027906,31.819361 c 0.779589,-1.124741 1.460741,-2.99106 0.501953,-5.002178 0.296485,-0.534914 0.467188,-1.155316 0.467188,-1.817235 0,-1.256041 -0.612208,-2.365034 -1.54033,-3.017648 0.949413,-0.970637 1.54033,-2.324028 1.54033,-3.819968 C 49.997047,8.147649 42.216095,0 32.652133,0 H 17.347844 C 7.7838835,0 0.00293044,8.147649 0.00293044,18.162332 c 0,1.495838 0.59091768,2.849228 1.54033126,3.819968 -0.92812451,0.652614 -1.54033126,1.761607 -1.54033126,3.017648 0,0.661715 0.17070304,1.282117 0.46718726,1.817235 -0.95908155,2.011936 -0.27714829,3.878869 0.50283179,5.003405 -0.6180661,0.780233 -0.97001905,1.773367 -0.97001905,2.802394 0,1.095188 0.38671855,2.097015 1.02333936,2.865895 -0.00127,0.02148 -0.00303,0.04274 -0.00303,0.06453 v 2.72437 c 0,5.360902 4.1650369,9.722227 9.2846632,9.722227 h 29.384361 c 5.119627,0 9.284663,-4.361325 9.284663,-9.722227 v -2.72437 c 0,-0.02177 -0.002,-0.04305 -0.003,-0.06453 0.636619,-0.76888 1.023339,-1.770707 1.023339,-2.865895 -1.96e-4,-1.040787 -0.346877,-2.0239 -0.969337,-2.803621 z M 22.081338,33.36101 c 0.403027,-0.139174 0.790917,-0.337249 1.150195,-0.595963 0.0022,-0.0015 0.0041,-0.0029 0.0062,-0.0045 0.486328,-0.350542 1.080371,-0.513747 1.6708,-0.458834 0.0498,0.0047 0.0999,0.0053 0.149805,0.0023 0,0 1.95e-4,0 2.93e-4,0 0.01074,-6.17e-4 0.02158,-0.0015 0.03242,-0.0025 0.590917,-0.0543 1.184765,0.1087 1.670995,0.459038 0.002,0.0014 0.0039,0.0028 0.0059,0.0042 1.556835,1.120855 3.647069,1.120446 5.203513,-0.0019 0.86543,-0.623981 2.028416,-0.624186 2.89404,0 1.557813,1.123002 3.65078,1.123002 5.208594,-2.04e-4 0.0013,-9.06e-4 0.0027,-0.0021 0.0041,-0.003 0.865135,-0.621424 2.026173,-0.620811 2.88779,3.07e-4 0.196779,0.142855 0.402151,0.267508 0.613968,0.374266 L 32.580454,41.414786 Z M 3.0121087,31.014894 C 2.9970696,31.00293 1.7813476,29.840353 2.103906,28.337562 c 0.4199217,0.189383 0.8823238,0.294914 1.3678705,0.294914 H 46.528004 c 0.485547,0 0.947949,-0.105429 1.367969,-0.294914 0.322658,1.502791 -0.892382,2.664754 -0.901367,2.672219 -0.856932,0.619073 -2.008789,0.616925 -2.868749,-0.0077 -1.55781,-1.123003 -3.650681,-1.122901 -5.208491,1.02e-4 -9.98e-4,7e-4 -0.002,0.0016 -0.0033,0.0023 -0.865138,0.622243 -2.026562,0.621527 -2.891404,-0.0019 -1.55791,-1.123002 -3.650976,-1.123002 -5.208495,1.02e-4 -0.865722,0.624186 -2.028417,0.623572 -2.893358,-0.0014 -0.0022,-0.0016 -0.0043,-0.0031 -0.0065,-0.0047 -0.850781,-0.611608 -1.880761,-0.905397 -2.912987,-0.831157 -1.031542,-0.07465 -2.063866,0.218936 -2.915135,0.83085 -0.0023,0.0017 -0.0047,0.0033 -0.0069,0.005 -0.864941,0.624902 -2.027734,0.625413 -2.893358,0.0014 -1.557617,-1.123104 -3.650682,-1.123207 -5.208494,-1.02e-4 -0.864453,0.623265 -2.025975,0.624083 -2.891307,0.0019 -0.0013,-8.23e-4 -0.0022,-0.0017 -0.0035,-0.0025 -1.5578124,-1.123105 -3.6506821,-1.123105 -5.2112284,0.0019 -0.8574214,0.622447 -2.0092764,0.624799 -2.8591782,0.01074 z m 43.6051553,2.464531 c 0.286328,-0.07025 0.566989,-0.169851 0.837987,-0.29839 0.321776,0.400547 0.501171,0.906317 0.501171,1.441845 0,1.237634 -0.961523,2.244471 -2.143456,2.244471 h -3.696191 z m -13.812103,-9.97511 c 0.56338,0 1.020311,-0.478263 1.020311,-1.068396 0,-0.590134 -0.456835,-1.068397 -1.020311,-1.068397 H 5.1043929 c -1.6877923,0 -3.0608384,-1.437856 -3.0608384,-3.205087 0,-8.836462 6.8655238,-16.02554 15.3042895,-16.02554 h 15.304289 c 8.438764,0 15.304289,7.189078 15.304289,16.02554 0,1.767333 -1.373145,3.205087 -3.060836,3.205087 h -4.999413 c -0.563379,0 -1.020311,0.478263 -1.020311,1.068397 0,0.590133 0.456835,1.068396 1.020311,1.068396 0,0 6.451561,0 6.631831,0 0.787695,0 1.428418,0.670918 1.428418,1.495735 0,0.824817 -0.640723,1.495735 -1.428418,1.495735 H 3.471874 c -0.7876948,0 -1.4284172,-0.670918 -1.4284172,-1.495735 0,-0.824817 0.6407224,-1.495735 1.4284172,-1.495735 z M 39.69217,47.863204 H 10.307808 c -3.9943337,0 -7.2440392,-3.402853 -7.2440392,-7.585431 v -1.435298 c 0.3577146,0.104611 0.7339841,0.161668 1.123144,0.161668 H 14.491009 c 0.563379,0 1.020313,-0.478263 1.020313,-1.068396 0,-0.590031 -0.456934,-1.068396 -1.020313,-1.068396 H 4.1869128 c -1.181933,0 -2.143456,-1.006837 -2.143456,-2.244471 0,-0.538391 0.1781249,-1.042935 0.4998044,-1.442458 0.5983396,0.284176 1.2443355,0.426929 1.8908193,0.426929 0.9106442,0 1.8212882,-0.281927 2.5970692,-0.845269 0.8642572,-0.623163 2.0253896,-0.623981 2.8903307,-0.0026 0.00156,0.001 0.00283,0.0021 0.0043,0.0031 1.5579096,1.123208 3.6508776,1.123208 5.2085916,2.05e-4 0.6833,-0.492579 1.551562,-0.594531 2.312889,-0.309434 0.0062,0.0049 0.01152,0.01033 0.01777,0.01503 l 5.734079,4.398749 h -1.940429 c -0.563378,0 -1.020312,0.478262 -1.020312,1.068396 0,0.590137 0.456836,1.0684 1.020312,1.0684 h 4.561228 c 0.05049,0 0.0998,-0.0051 0.148242,-0.01247 l 6.003416,4.605314 c 0.179492,0.137741 0.39121,0.20656 0.603027,0.20656 0.208789,0 0.417578,-0.06688 0.595507,-0.200835 l 6.110937,-4.600367 c 0.01231,4.12e-4 0.02443,0.0021 0.03681,0.0021 h 6.495018 c 0.389062,0 0.765429,-0.05706 1.123144,-0.161672 v 1.435298 c 1.93e-4,4.182681 -3.249512,7.585534 -7.243844,7.585534 z"
   id="path908"
   style="stroke-width:0.0999307" />
<path
   d="m 12.858588,15.3129 c -0.563378,0 -1.020311,0.478263 -1.020311,1.068397 v 0.06657 c 0,0.590031 0.456933,1.068397 1.020311,1.068397 0.563379,0 1.020313,-0.478263 1.020313,-1.068397 v -0.06657 C 13.878803,15.791265 13.421967,15.3129 12.858588,15.3129 Z"
   id="path910"
   style="stroke-width:0.0999307" />
<path
   d="m 18.929289,13.389827 c -0.563379,0 -1.020312,0.478263 -1.020312,1.068397 v 0.06657 c 0,0.590032 0.456835,1.068397 1.020312,1.068397 0.563378,0 1.020311,-0.478263 1.020311,-1.068397 v -0.06657 c 0,-0.590032 -0.456933,-1.068397 -1.020311,-1.068397 z"
   id="path912"
   style="stroke-width:0.0999307" />
<path
   d="m 6.7877903,13.389827 c -0.5633786,0 -1.0203118,0.478263 -1.0203118,1.068397 v 0.06657 c 0,0.590032 0.4569332,1.068397 1.0203118,1.068397 0.5633786,0 1.0203121,-0.478263 1.0203121,-1.068397 v -0.06657 c 0,-0.590032 -0.4568357,-1.068397 -1.0203121,-1.068397 z"
   id="path914"
   style="stroke-width:0.0999307" />
<path
   d="m 24.999989,15.3129 c -0.563379,0 -1.020312,0.478263 -1.020312,1.068397 v 0.06657 c 0,0.590031 0.456836,1.068397 1.020312,1.068397 0.563476,0 1.020312,-0.478263 1.020312,-1.068397 v -0.06657 c 0,-0.590032 -0.456934,-1.068397 -1.020312,-1.068397 z"
   id="path916"
   style="stroke-width:0.0999307" />
<path
   d="m 31.070689,13.389827 c -0.563379,0 -1.020312,0.478263 -1.020312,1.068397 v 0.06657 c 0,0.590032 0.456835,1.068397 1.020312,1.068397 0.563476,0 1.020312,-0.478263 1.020312,-1.068397 v -0.06657 c 0,-0.590032 -0.456836,-1.068397 -1.020312,-1.068397 z"
   id="path918"
   style="stroke-width:0.0999307" />
<path
   d="m 37.141389,17.516264 c 0.563379,0 1.020311,-0.478263 1.020311,-1.068397 v -0.06657 c 0,-0.590032 -0.456835,-1.068397 -1.020311,-1.068397 -0.563379,0 -1.020311,0.478263 -1.020311,1.068397 v 0.06657 c 9.7e-5,0.590031 0.456835,1.068397 1.020311,1.068397 z"
   id="path920"
   style="stroke-width:0.0999307" />
<path
   d="m 43.212187,15.593191 c 0.563379,0 1.02031,-0.478263 1.02031,-1.068397 v -0.06657 c 0,-0.590032 -0.456835,-1.068397 -1.02031,-1.068397 -0.563476,0 -1.020311,0.478263 -1.020311,1.068397 v 0.06657 c 0,0.590032 0.456738,1.068397 1.020311,1.068397 z"
   id="path922"
   style="stroke-width:0.0999307" />
<path
   d="m 15.7664,7.403718 c -0.563379,0 -1.020312,0.478263 -1.020312,1.068397 v 0.06657 c 0,0.590032 0.456933,1.068397 1.020312,1.068397 0.563378,0 1.020311,-0.478263 1.020311,-1.068397 v -0.06657 c 0,-0.590032 -0.456933,-1.068397 -1.020311,-1.068397 z"
   id="path924"
   style="stroke-width:0.0999307" />
<path
   d="m 21.8371,9.326791 c -0.563379,0 -1.020312,0.478263 -1.020312,1.068397 v 0.06657 c 0,0.590032 0.456933,1.068397 1.020312,1.068397 0.563378,0 1.020312,-0.478263 1.020312,-1.068397 v -0.06657 c 0,-0.590032 -0.456934,-1.068397 -1.020312,-1.068397 z"
   id="path926"
   style="stroke-width:0.0999307" />
<path
   d="m 27.9078,7.403718 c -0.563379,0 -1.020312,0.478263 -1.020312,1.068397 v 0.06657 c 0,0.590032 0.456933,1.068397 1.020312,1.068397 0.563378,0 1.020312,-0.478263 1.020312,-1.068397 v -0.06657 c 0,-0.590032 -0.456934,-1.068397 -1.020312,-1.068397 z"
   id="path928"
   style="stroke-width:0.0999307" />
<path
   d="m 34.998812,10.461758 v -0.06657 c 0,-0.590032 -0.456935,-1.068397 -1.02031,-1.068397 -0.56338,0 -1.020314,0.478263 -1.020314,1.068397 v 0.06657 c 0,0.590032 0.456834,1.068397 1.020314,1.068397 0.563475,0 1.02031,-0.478365 1.02031,-1.068397 z"
   id="path930"
   style="stroke-width:0.0999307" />
<path
   d="m 17.891984,36.867351 h -0.03828 c -0.563378,0 -1.020312,0.478262 -1.020312,1.068396 0,0.590133 0.456836,1.068396 1.020312,1.068396 h 0.03828 c 0.563379,0 1.020312,-0.478263 1.020312,-1.068396 0,-0.590134 -0.456933,-1.068396 -1.020312,-1.068396 z"
   id="path932"
   style="stroke-width:0.0999307" />
<path
   d="m 36.26463,23.504315 h 0.03195 c 0.563375,0 1.02031,-0.478263 1.02031,-1.068396 0,-0.590134 -0.456935,-1.068397 -1.02031,-1.068397 h -0.03195 c -0.563376,0 -1.020311,0.478263 -1.020311,1.068397 0,0.590133 0.456836,1.068396 1.020311,1.068396 z"
   id="path934"
   style="stroke-width:0.0999307" />
<g
   id="g936"
   transform="translate(7.6652143e-6,-11.522)">
</g>
<g
   id="g938"
   transform="translate(7.6652143e-6,-11.522)">
</g>
<g
   id="g940"
   transform="translate(7.6652143e-6,-11.522)">
</g>
<g
   id="g942"
   transform="translate(7.6652143e-6,-11.522)">
</g>
<g
   id="g944"
   transform="translate(7.6652143e-6,-11.522)">
</g>
<g
   id="g946"
   transform="translate(7.6652143e-6,-11.522)">
</g>
<g
   id="g948"
   transform="translate(7.6652143e-6,-11.522)">
</g>
<g
   id="g950"
   transform="translate(7.6652143e-6,-11.522)">
</g>
<g
   id="g952"
   transform="translate(7.6652143e-6,-11.522)">
</g>
<g
   id="g954"
   transform="translate(7.6652143e-6,-11.522)">
</g>
<g
   id="g956"
   transform="translate(7.6652143e-6,-11.522)">
</g>
<g
   id="g958"
   transform="translate(7.6652143e-6,-11.522)">
</g>
<g
   id="g960"
   transform="translate(7.6652143e-6,-11.522)">
</g>
<g
   id="g962"
   transform="translate(7.6652143e-6,-11.522)">
</g>
<g
   id="g964"
   transform="translate(7.6652143e-6,-11.522)">
</g>
</svg>
